<?xml version="1.0" encoding="UTF-8"?>
<svg id="_图层_1" data-name=" 图层 1" xmlns="http://www.w3.org/2000/svg" viewBox="0 0 2671.17 952.17">
  <defs>
    <style>
      .cls-1 {
        fill: #fff;
      }
    </style>
  </defs>
  <rect width="2671.17" height="952.17" rx="42" ry="42"/>
  <path class="cls-1" d="M884.35,96.4v753.71H130.64V96.4h753.71M926.23,54.53H88.77v837.46h837.46V54.53h0Z"/>
  <path class="cls-1" d="M786.55,104.35c30.88,0,54.26,7.72,69.48,22.95,14.56,14.56,22.26,36.61,22.9,65.55.73,32.74-7.88,73.32-24.91,117.33-18.09,46.76-44.78,96.06-79.33,146.51-36.21,52.87-79.37,104.48-128.28,153.4-71.46,71.46-149.52,131.23-225.73,172.84-36.02,19.66-70.76,34.8-103.24,44.97-31.26,9.79-59.64,14.75-84.32,14.75-30.88,0-54.26-7.72-69.48-22.95-14.56-14.56-22.26-36.61-22.9-65.55-.73-32.74,7.88-73.32,24.91-117.33,18.09-46.76,44.78-96.06,79.33-146.51,36.21-52.87,79.37-104.48,128.28-153.4,71.46-71.46,149.52-131.23,225.73-172.84,36.02-19.66,70.76-34.8,103.24-44.97,31.26-9.79,59.64-14.75,84.32-14.75M786.55,62.47c-116.67,0-289.38,91.3-442.92,244.82-207.55,207.56-301.39,450.23-209.61,542.01,23.89,23.89,58.04,35.22,99.1,35.22,116.67,0,289.38-91.3,442.92-244.82,207.56-207.56,301.4-450.22,209.61-542.01-23.89-23.89-58.04-35.22-99.1-35.22h0Z"/>
  <path class="cls-1" d="M89.31,54.38c1.62-1.6,51.03,45.48,94.63,87.1,30.78,29.37,117.53,112.5,221.09,197.64,42.77,35.16,68.09,53.97,103.01,53.6,34.6-.36,58.88-19.98,99.66-53.6,106.02-87.4,223.38-202.96,286.41-258.77,9.14-8.09,31.13-27.51,32.66-25.96,1.53,1.55-18.14,23.27-25.12,30.99-63.78,70.45-173.84,172.74-261.29,283.06-37.13,46.85-52.08,72.3-51.92,104.68.17,33.87,16.79,58.81,56.11,107.19,83.48,102.71,180.94,202.34,257.1,283.06,9.45,10.02,26.05,27.52,25.12,28.47-1.42,1.46-42.72-36.57-60.3-52.76-44.35-40.83-74.96-70.66-96.31-91.28-100.95-97.53-133.49-123.41-154.09-139.02-72.63-55.04-94.52-56.64-108.03-55.27-37.99,3.84-79.55,36.18-103.01,54.43-16.84,13.11-28.35,24.25-30.99,26.8-75.08,72.61-281.3,260.56-284.74,257.1-.85-.85,10.43-13.86,49.41-55.27,98.79-104.95,165.15-169.57,235.33-262.12,32.57-42.96,52.88-66.28,53.6-101.33.7-33.97-15.67-60.35-51.08-105.52-64.53-82.32-117.95-132.19-189.27-206.01-46.06-47.68-99.72-105.47-97.98-107.19"/>
  <g>
    <path class="cls-1" d="M1068.84,614.32c16.83,0,30.48,12.81,30.48,30.48s-13.65,30.48-30.48,30.48-30.4-12.81-30.4-30.48,13.57-30.48,30.4-30.48ZM1068.84,661.38c9.55,0,15.83-6.78,15.83-16.58s-6.28-16.58-15.83-16.58-15.74,6.7-15.74,16.58,6.28,16.58,15.74,16.58Z"/>
    <path class="cls-1" d="M1131.15,615.49c14.4,0,23.11,7.54,23.11,20.1s-8.71,20.1-23.11,20.1h-8.29v18.42h-14.07v-58.62h22.36ZM1130.9,642.54c5.44,0,8.71-2.6,8.71-6.95s-3.27-6.95-8.71-6.95h-8.04v13.9h8.04Z"/>
    <path class="cls-1" d="M1204.76,660.96v13.15h-43.13v-58.62h42.63v13.15h-28.56v9.63h22.36v12.65h-22.36v10.05h29.06Z"/>
    <path class="cls-1" d="M1269.75,615.49v58.62h-13.23l-24.29-31.32-1.17-2.18.17,2.18v31.32h-14.07v-58.62h13.23l24.29,30.9,1.17,2.18-.17-2.18v-30.9h14.07Z"/>
    <path class="cls-1" d="M1316.31,674.11v-58.62h14.07v58.62h-14.07Z"/>
    <path class="cls-1" d="M1396.04,615.49v58.62h-13.23l-24.29-31.32-1.17-2.18.17,2.18v31.32h-14.07v-58.62h13.23l24.29,30.9,1.17,2.18-.17-2.18v-30.9h14.07Z"/>
    <path class="cls-1" d="M1452.9,615.49v13.15h-17.84v45.47h-14.07v-45.47h-17.59v-13.15h49.49Z"/>
    <path class="cls-1" d="M1503.4,660.96v13.15h-43.13v-58.62h42.63v13.15h-28.56v9.63h22.36v12.65h-22.36v10.05h29.06Z"/>
    <path class="cls-1" d="M1555.99,669.34c-3.43,3.68-9.3,5.95-15.91,5.95-16.83,0-30.4-12.81-30.4-30.48s13.57-30.48,30.4-30.48c11.39,0,21.36,6.03,26.63,15.58l-14.32,3.77c-2.76-3.35-7.7-5.44-12.31-5.44-9.71,0-15.74,6.95-15.74,16.58,0,10.3,6.95,16.75,16.58,16.75s13.48-4.86,15.16-9.21v-.08h-15.41v-11.31h27.38v33.16h-12.06v-4.77h0Z"/>
    <path class="cls-1" d="M1612.27,674.11l-11.64-19.09h-6.95v19.09h-14.07v-58.62h21.86c14.74,0,23.62,7.7,23.62,19.76,0,7.96-3.85,13.99-10.72,17.17l13.48,21.69h-15.58,0ZM1593.68,641.87h9.71c5.02,0,7.03-3.43,7.03-6.62s-2.01-6.62-7.03-6.62h-9.71v13.23h0Z"/>
    <path class="cls-1" d="M1676.42,666.57h-26.97l-3.43,7.54h-15.66l27.64-58.62h9.88l27.64,58.62h-15.66l-3.43-7.54h0ZM1670.48,653.43l-6.7-14.82-.84-2.34-.84,2.34-6.7,14.82h15.07Z"/>
    <path class="cls-1" d="M1739.98,615.49v13.15h-17.84v45.47h-14.07v-45.47h-17.59v-13.15h49.49Z"/>
    <path class="cls-1" d="M1790.48,660.96v13.15h-43.13v-58.62h42.63v13.15h-28.56v9.63h22.36v12.65h-22.36v10.05h29.06Z"/>
    <path class="cls-1" d="M1828.5,615.49c16.75,0,30.32,11.98,30.32,29.56s-13.57,29.06-30.32,29.06h-25.63v-58.62h25.63ZM1828.5,660.96c8.37,0,15.66-5.86,15.66-15.91s-7.29-16.41-15.66-16.41h-11.56v32.33h11.56Z"/>
    <path class="cls-1" d="M1940.88,633.66c-2.68-3.35-7.7-5.44-12.31-5.44-9.71,0-15.74,6.95-15.74,16.58,0,10.13,6.62,16.41,15.74,16.41,5.61,0,10.97-2.85,13.4-6.87l14.24,3.68c-4.86,10.38-15.33,17.25-27.64,17.25-16.83,0-30.4-12.81-30.4-30.48s13.57-30.48,30.4-30.48c11.56,0,21.44,6.2,26.63,15.58l-14.32,3.77h0Z"/>
    <path class="cls-1" d="M1990.88,614.32c16.83,0,30.48,12.81,30.48,30.48s-13.65,30.48-30.48,30.48-30.4-12.81-30.4-30.48,13.57-30.48,30.4-30.48ZM1990.88,661.38c9.55,0,15.83-6.78,15.83-16.58s-6.28-16.58-15.83-16.58-15.74,6.7-15.74,16.58,6.28,16.58,15.74,16.58Z"/>
    <path class="cls-1" d="M2059.55,634.08c-1.42-5.19-5.61-7.62-9.8-7.62s-6.95,1.76-6.95,4.61c0,3.43,5.86,5.11,12.98,7.7,8.71,3.18,17.84,6.95,17.84,18.17s-9.21,18.34-22.86,18.34c-12.23,0-20.94-6.78-24.79-17.75l13.73-3.68c1.34,4.61,6.03,8.71,12.06,8.71,4.52,0,7.29-2.18,7.29-4.86,0-4.19-7.2-5.95-15.58-9.13-7.03-2.68-15.16-6.53-15.16-16.83,0-9.13,9.21-17.42,21.94-17.42,11.22,0,20.1,6.87,22.86,16.08l-13.57,3.68h0Z"/>
    <path class="cls-1" d="M2140.88,615.49v58.62h-14.07v-31.15l.17-2.09-1,2.09-11.56,16.67h-5.69l-11.56-16.67-1-2.09.17,2.09v31.15h-14.07v-58.62h13.23l15.07,22.11,1,1.93,1-1.93,15.07-22.11h13.23Z"/>
    <path class="cls-1" d="M2180.73,614.32c16.83,0,30.48,12.81,30.48,30.48s-13.65,30.48-30.48,30.48-30.4-12.81-30.4-30.48,13.57-30.48,30.4-30.48ZM2180.73,661.38c9.55,0,15.83-6.78,15.83-16.58s-6.28-16.58-15.83-16.58-15.74,6.7-15.74,16.58,6.28,16.58,15.74,16.58Z"/>
    <path class="cls-1" d="M2249.4,634.08c-1.42-5.19-5.61-7.62-9.8-7.62s-6.95,1.76-6.95,4.61c0,3.43,5.86,5.11,12.98,7.7,8.71,3.18,17.84,6.95,17.84,18.17s-9.21,18.34-22.86,18.34c-12.23,0-20.94-6.78-24.79-17.75l13.73-3.68c1.34,4.61,6.03,8.71,12.06,8.71,4.52,0,7.29-2.18,7.29-4.86,0-4.19-7.2-5.95-15.58-9.13-7.03-2.68-15.16-6.53-15.16-16.83,0-9.13,9.21-17.42,21.94-17.42,11.22,0,20.1,6.87,22.86,16.08l-13.57,3.68h0Z"/>
  </g>
  <g>
    <path class="cls-1" d="M1182.49,718.04c-.5,1.84-2.34,2.68-4.69,2.68h-30.32v52.09h10.38l11.39-17.92s13.06,12.23,20.1,19.93c-.5,1.84-2.34,2.68-4.69,2.68h-37.18v72.86c0,1.51-7.7,6.87-21.1,6.87h-4.86v-79.73h-22.95c-.84,31.99-9.38,63.81-67,80.73l-1-1.17c34.67-21.61,41.54-48.24,42.38-79.56h-40.2l-1.34-4.69h41.54v-52.09h-33.16l-1.34-4.69h112.39l11.22-14.91s12.9,10.05,20.43,16.92h0ZM1098.74,772.81h22.78v-52.09h-22.78v52.09Z"/>
    <path class="cls-1" d="M1282.65,736.8c-.5,1.84-2.34,2.68-4.69,2.68h-40.03c-.17,7.87-.5,15.58-1,23.45h9.71l11.39-11.22,19.26,16.41c-1.34,1.51-3.35,2.68-7.03,3.35-1.51,54.77-4.19,71.52-13.23,79.39-5.69,4.86-12.73,7.03-21.94,7.03,0-6.87-.34-12.06-2.34-14.91-2.18-3.18-5.53-5.53-11.39-7.03v-2.01c4.35.34,11.22.67,14.24.67,2.34,0,3.85-.5,5.19-1.67,4.52-4.02,6.36-22.61,7.54-65.32h-11.72c-2.85,35.01-11.39,68.5-39.19,91.28l-1.34-1.34c18.93-34.17,19.76-78.05,18.26-118.08h-15.07l-1.34-4.69h53.6l11.22-15.07s12.56,10.22,19.93,17.08ZM1229.39,730.1c-1-10.38-6.2-21.61-11.56-29.14l1.34-.84c51.08,6.7,30.48,45.56,10.22,29.98h0ZM1314.97,710c-2.68,10.38-5.69,19.93-9.38,28.81h20.27l11.56-15.91s13.23,10.72,20.94,17.92c-.34,1.84-2.18,2.68-4.69,2.68h-6.87c-3.01,25.46-9.71,49.24-23.28,69.17,9.38,10.05,20.94,17.92,34.67,24.12l-.5,1.67c-11.56,2.68-17.92,9.38-20.77,20.6-11.05-8.21-19.6-18.59-25.96-30.99-12.56,12.56-29.14,23.11-51.08,30.48l-1-1.51c20.6-13.06,34.84-29.14,44.39-47.23-4.69-14.07-7.7-29.81-9.88-47.07-5.69,8.88-12.06,16.58-19.6,23.28l-1.84-1c8.37-22.44,15.07-55.27,16.58-85.59l32.83,6.53c-.5,2.18-2.51,3.85-6.36,4.02h0ZM1296.21,758.23c3.18,13.73,7.7,25.96,13.9,36.51,6.03-16.25,9.04-33.5,10.22-51.25h-16.75c-2.18,5.19-4.69,10.05-7.37,14.74h0Z"/>
    <path class="cls-1" d="M1508.76,728.09c-.5,1.84-2.34,2.68-4.69,2.68h-43.38v14.07h15.58l10.55-13.9s12.06,9.38,19.26,15.91c-.34,1.84-2.18,2.68-4.52,2.68h-40.87v14.57h15.58l10.55-13.9s12.06,9.38,19.26,15.91c-.34,1.84-2.18,2.68-4.52,2.68h-40.87v15.41h20.94l11.72-15.24s13.06,10.22,20.94,17.25c-.5,1.84-2.34,2.68-4.69,2.68h-94.97v4.86c0,1.51-7.2,6.87-19.43,6.87h-4.35v-55.44c-7.54,4.35-15.41,7.87-23.62,10.72l-1.34-1.51c13.4-12.23,27.64-33,35.51-55.61l29.65,14.24c-1,1.84-3.35,3.18-7.37,2.51-2.68,3.52-5.36,6.87-8.21,10.05l1.51.5h60.63l11.22-14.91s12.56,10.05,19.93,16.92h0ZM1522.33,807.97c-.5,1.84-2.34,2.68-4.69,2.68h-56.61c14.91,11.05,40.2,17.92,62.47,19.76l-.17,1.84c-8.88,2.68-15.41,10.55-17.75,22.28-23.62-8.37-38.86-22.28-49.08-42.71v41.04c0,1.67-11.05,5.53-20.6,5.53h-4.52v-30.99c-16.41,12.23-38.86,21.27-64.32,27.13l-.84-1.67c20.94-10.05,37.85-26.3,47.9-42.21h-44.89l-1.34-4.69h63.48v-16.41l30.65,2.51c-.34,2.01-1.34,3.68-5.53,4.35v9.55h34l11.39-15.74s12.9,10.55,20.43,17.75h0ZM1435.9,744.83v-14.07h-21.27v14.07h21.27ZM1435.9,764.1v-14.57h-21.27v14.57h21.27ZM1414.63,784.2h21.27v-15.41h-21.27v15.41ZM1440.09,721.55c-.17-7.87-3.68-16.08-7.54-20.94l1-.84c49.08-.17,26.63,37.02,6.53,21.77Z"/>
    <path class="cls-1" d="M1547.79,724.9l27.8,9.38h39.03c-.67-11.39-1-22.95-1-34.67l29.98,2.85c-.17,2.18-1.67,4.19-6.03,4.86-.17,8.88-.17,17.92.34,26.97h18.42l5.69-7.2c-1.17-.34-2.34-.67-3.52-1.34-2.34-7.7-8.88-16.08-14.57-20.77l1.17-1c29.81-3.52,34.84,11.05,29.14,18.76,4.86,3.68,11.89,9.21,16.92,13.57-.5,1.84-2.34,2.68-4.86,2.68h-48.24c1,15.41,3.18,30.48,7.7,44.05,4.35-10.55,7.54-21.1,9.88-31.32l30.65,10.38c-.67,2.01-2.18,3.35-6.53,3.18-5.53,14.07-12.9,28.31-22.78,41.71,3.85,5.86,8.37,11.05,13.73,15.74,2.34,2.51,3.68,2.51,5.69-.34,3.01-4.35,8.54-13.9,12.23-21.44l1.51.5-4.52,29.98c6.53,11.89,7.54,18.42,4.02,21.44-9.71,8.54-25.96,0-33.67-7.54-6.2-6.03-11.39-12.56-15.91-19.6-13.57,12.73-30.82,23.62-52.59,30.99l-1.17-1.84c19.26-11.72,34.17-27.47,45.22-44.55-10.05-21.44-14.57-45.56-16.58-71.35h-42.88v26.13h15.07l11.22-10.72,19.26,16.08c-1.17,1.34-3.18,2.51-6.53,3.01-1,37.18-3.01,48.74-11.05,54.77-5.02,3.68-11.22,5.53-20.1,5.53,0-6.53-.34-11.72-2.34-14.74s-4.86-5.02-10.05-6.53v-.84c-4.86,17.59-14.91,35.01-35.51,47.74l-1.17-1.17c15.74-26.13,16.92-59.63,16.92-88.1v-45.22h0ZM1572.07,769.79v.34c0,12.06-.5,26.3-4.19,40.37,3.35.34,9.21.5,11.89.5,2.18,0,3.35-.34,4.35-1.17,2.68-2.51,3.85-13.9,4.52-40.03h-16.58,0Z"/>
    <path class="cls-1" d="M1857.48,789.71c-.5,1.84-2.34,2.68-4.69,2.68h-60.97v37.18c0,16.08-4.35,27.3-32.16,29.31-.34-8.21-1.67-14.4-5.02-18.09-3.18-3.52-7.2-6.36-18.26-8.21v-2.01s22.28,1.34,26.8,1.34c2.51,0,3.52-1.34,3.52-3.18v-36.35h-62.64l-1.34-4.69h63.98v-27.47h-38.69l-1.34-4.69h73.19l11.89-15.07s8.54,6.36,16.08,12.56c.33-6.03.5-13.57.5-19.6h-99.16c2.01,13.23-1.84,22.78-8.54,26.97-6.36,4.19-17.42,1.17-20.1-7.7-2.34-8.37,2.51-14.57,9.55-17.75,5.19-2.68,12.73-9.55,12.56-16.75h1.84c1.67,3.68,2.85,7.2,3.68,10.55h50.41c-2.18-.67-4.52-1.67-6.7-3.35.17-9.38-3.85-19.09-10.38-24.62l.84-.84c44.05-2.51,40.2,24.29,25.12,28.81h39.03l11.89-12.06,20.94,19.6c-1.34,1.51-3.01,2.01-6.53,2.18-5.53,5.36-14.74,12.23-22.44,16.58l3.01,2.51c-.5,1.84-2.34,2.68-4.86,2.68h-36.68v27.47h32.66l11.72-15.41s13.4,10.38,21.27,17.42h0Z"/>
    <path class="cls-1" d="M1954.96,728.76h39.03l12.06-12.06,20.77,19.6c-1.34,1.51-3.01,2.01-6.53,2.18-6.7,5.69-18.09,13.23-26.97,17.42l-1.17-1c1.34-6.03,2.51-14.74,3.18-21.44h-98.65c1.84,11.22-.67,19.76-5.53,24.45-1,1.17-2.01,1.84-3.01,2.51-6.36,4.19-17.42,1.17-20.1-7.7-2.34-8.37,2.51-14.57,9.55-17.75,5.19-2.68,12.73-9.55,12.56-16.75h1.84c1.67,3.68,2.85,7.2,3.68,10.55h50.41c-2.18-.67-4.52-1.67-6.7-3.35.17-9.38-3.85-19.09-10.38-24.62l.84-.84c44.05-2.51,40.2,24.29,25.12,28.81h0ZM1960.15,744.67v22.95h18.26l10.72-11.89,21.77,16.75c-1,1.34-3.18,2.85-6.53,3.68v74.2c-.33,1.51-12.06,6.03-20.27,6.03h-4.02v-12.73h-65.66v7.03c0,2.51-10.05,7.87-19.93,7.87h-3.52v-90.95l.17-9.71,24.79,9.71h19.93v-29.81l29.65,2.51c-.17,2.34-1.34,3.85-5.36,4.35h0ZM1914.43,772.3v28.98h21.44v-28.98h-21.44ZM1935.87,838.96v-33h-21.44v33h21.44ZM1960.15,772.3v28.98h19.93v-28.98h-19.93ZM1980.08,805.96h-19.93v33h19.93v-33Z"/>
  </g>
  <g>
    <path class="cls-1" d="M1210.63,88.47c134.66,0,243.87,102.5,243.87,243.87s-109.2,243.87-243.87,243.87-243.2-102.5-243.2-243.87,108.53-243.87,243.2-243.87ZM1210.63,464.99c76.38,0,126.62-54.27,126.62-132.65s-50.25-132.65-126.62-132.65-125.95,53.6-125.95,132.65,50.25,132.65,125.95,132.65Z"/>
    <path class="cls-1" d="M1709.08,97.85c115.23,0,184.91,60.3,184.91,160.79s-69.68,160.79-184.91,160.79h-66.33v147.39h-112.55V97.85h178.88ZM1707.07,314.25c43.55,0,69.68-20.77,69.68-55.61s-26.13-55.61-69.68-55.61h-64.32v111.21h64.32Z"/>
    <path class="cls-1" d="M1952.95,566.82V97.85h112.55v468.98h-112.55Z"/>
    <path class="cls-1" d="M2482.89,243.23c-21.44-26.8-61.64-43.55-98.49-43.55-77.72,0-125.95,55.61-125.95,132.65,0,81.07,52.93,131.31,125.95,131.31,44.89,0,87.77-22.78,107.19-54.94l113.89,29.48c-38.86,83.08-122.6,138.01-221.09,138.01-134.66,0-243.2-102.5-243.2-243.87s108.53-243.87,243.2-243.87c92.46,0,171.51,49.58,213.05,124.61l-114.56,30.15h0Z"/>
  </g>
</svg>