<?xml version="1.0" encoding="UTF-8"?>
<svg id="_图层_1" data-name="图层 1" xmlns="http://www.w3.org/2000/svg" viewBox="0 0 1000.75 1000.27">
  <defs>
    <style>
      .cls-1 {
        fill: #fff;
      }
    </style>
  </defs>
  <path class="cls-1" d="M950,50.27v900H50V50.27h900M1000,.27H0v1000h1000V.27h0Z"/>
  <path class="cls-1" d="M833.21,59.76c36.87,0,64.79,9.22,82.97,27.4,17.38,17.38,26.58,43.71,27.35,78.27.87,39.1-9.41,87.55-29.74,140.1-21.6,55.84-53.47,114.7-94.73,174.95-43.24,63.13-94.77,124.76-153.18,183.17-85.33,85.33-178.54,156.7-269.54,206.39-43.01,23.48-84.49,41.55-123.28,53.7-37.33,11.69-71.21,17.61-100.69,17.61-36.87,0-64.79-9.22-82.97-27.4-17.38-17.38-26.58-43.71-27.35-78.27-.87-39.1,9.41-87.55,29.74-140.1,21.6-55.84,53.47-114.7,94.73-174.95,43.24-63.13,94.77-124.76,153.18-183.17,85.33-85.33,178.54-156.7,269.54-206.39,43.01-23.48,84.49-41.55,123.28-53.7,37.33-11.69,71.21-17.61,100.69-17.61M833.21,9.76c-139.32,0-345.55,109.02-528.88,292.34C56.5,549.94-55.56,839.71,54.04,949.31c28.53,28.53,69.3,42.05,118.33,42.05,139.32,0,345.55-109.02,528.88-292.34,247.84-247.84,359.9-537.6,250.29-647.21-28.53-28.53-69.3-42.05-118.33-42.05h0Z"/>
  <path class="cls-1" d="M.65.1c1.93-1.91,60.93,54.31,113,104,36.75,35.07,140.34,134.33,264,236,51.07,41.99,81.31,64.44,123,64,41.32-.43,70.31-23.86,119-64,126.6-104.36,266.74-242.35,342-309,10.91-9.66,37.17-32.85,39-31,1.83,1.85-21.66,27.79-30,37-76.16,84.12-207.58,206.27-312,338-44.34,55.94-62.19,86.33-62,125,.2,40.44,20.05,70.23,67,128,99.68,122.64,216.06,241.61,307,338,11.29,11.96,31.11,32.86,30,34-1.69,1.74-51.01-43.67-72-63-52.96-48.76-89.51-84.38-115-109-120.54-116.46-159.4-147.36-184-166-86.73-65.72-112.86-67.63-129-66-45.36,4.58-94.99,43.2-123,65-20.11,15.65-33.85,28.96-37,32C251,779.8,4.75,1004.23.65,1000.1c-1.02-1.02,12.45-16.55,59-66,117.96-125.32,197.2-202.48,281-313,38.89-51.3,63.14-79.15,64-121,.84-40.56-18.71-72.06-61-126-77.06-98.3-140.84-157.85-226-246C62.65,71.17-1.42,2.16.65.1"/>
</svg>