<?xml version="1.0" encoding="UTF-8"?>
<svg id="_图层_1" data-name=" 图层 1" xmlns="http://www.w3.org/2000/svg" viewBox="0 0 3005.19 1000.27">
  <path d="M950,50.27v900H50V50.27h900M1000,.27H0v1000h1000V.27h0Z"/>
  <path d="M833.21,59.76c36.87,0,64.79,9.22,82.97,27.4,17.38,17.38,26.58,43.71,27.35,78.27.87,39.1-9.41,87.55-29.74,140.1-21.6,55.84-53.47,114.7-94.73,174.95-43.24,63.13-94.77,124.76-153.18,183.17-85.33,85.33-178.54,156.7-269.54,206.39-43.01,23.48-84.49,41.55-123.28,53.7-37.33,11.69-71.21,17.61-100.69,17.61-36.87,0-64.79-9.22-82.97-27.4-17.38-17.38-26.58-43.71-27.35-78.27-.87-39.1,9.41-87.55,29.74-140.1,21.6-55.84,53.47-114.7,94.73-174.95,43.24-63.13,94.77-124.76,153.18-183.17,85.33-85.33,178.54-156.7,269.54-206.39,43.01-23.48,84.49-41.55,123.28-53.7,37.33-11.69,71.21-17.61,100.69-17.61M833.21,9.76c-139.32,0-345.55,109.02-528.88,292.34C56.5,549.94-55.56,839.71,54.04,949.31c28.53,28.53,69.3,42.05,118.33,42.05,139.32,0,345.55-109.02,528.88-292.34,247.84-247.84,359.9-537.6,250.29-647.21-28.53-28.53-69.3-42.05-118.33-42.05h0Z"/>
  <path d="M.65.1c1.93-1.91,60.93,54.31,113,104,36.75,35.07,140.34,134.33,264,236,51.07,41.99,81.31,64.44,123,64,41.32-.43,70.31-23.86,119-64,126.6-104.36,266.74-242.35,342-309,10.91-9.66,37.17-32.85,39-31,1.83,1.85-21.66,27.79-30,37-76.16,84.12-207.58,206.27-312,338-44.34,55.94-62.19,86.33-62,125,.2,40.44,20.05,70.23,67,128,99.68,122.64,216.06,241.61,307,338,11.29,11.96,31.11,32.86,30,34-1.69,1.74-51.01-43.67-72-63-52.96-48.76-89.51-84.38-115-109-120.54-116.46-159.4-147.36-184-166-86.73-65.72-112.86-67.63-129-66-45.36,4.58-94.99,43.2-123,65-20.11,15.65-33.85,28.96-37,32C251,779.8,4.75,1004.23.65,1000.1c-1.02-1.02,12.45-16.55,59-66,117.96-125.32,197.2-202.48,281-313,38.89-51.3,63.14-79.15,64-121,.84-40.56-18.71-72.06-61-126-77.06-98.3-140.84-157.85-226-246C62.65,71.17-1.42,2.16.65.1"/>
  <g>
    <path d="M1170.3,668.71c20.1,0,36.4,15.3,36.4,36.4s-16.3,36.4-36.4,36.4-36.3-15.3-36.3-36.4,16.2-36.4,36.3-36.4ZM1170.3,724.91c11.4,0,18.9-8.1,18.9-19.8s-7.5-19.8-18.9-19.8-18.8,8-18.8,19.8,7.5,19.8,18.8,19.8Z"/>
    <path d="M1244.7,670.11c17.2,0,27.6,9,27.6,24s-10.4,24-27.6,24h-9.9v22h-16.8v-70h26.7ZM1244.4,702.41c6.5,0,10.4-3.1,10.4-8.3s-3.9-8.3-10.4-8.3h-9.6v16.6h9.6Z"/>
    <path d="M1332.6,724.41v15.7h-51.5v-70h50.9v15.7h-34.1v11.5h26.7v15.1h-26.7v12h34.7Z"/>
    <path d="M1410.2,670.11v70h-15.8l-29-37.4-1.4-2.6.2,2.6v37.4h-16.8v-70h15.8l29,36.9,1.4,2.6-.2-2.6v-36.9h16.8Z"/>
    <path d="M1465.8,740.11v-70h16.8v70h-16.8Z"/>
    <path d="M1561,670.11v70h-15.8l-29-37.4-1.4-2.6.2,2.6v37.4h-16.8v-70h15.8l29,36.9,1.4,2.6-.2-2.6v-36.9h16.8Z"/>
    <path d="M1628.9,670.11v15.7h-21.3v54.3h-16.8v-54.3h-21v-15.7h59.1Z"/>
    <path d="M1689.2,724.41v15.7h-51.5v-70h50.9v15.7h-34.1v11.5h26.7v15.1h-26.7v12h34.7Z"/>
    <path d="M1752,734.41c-4.1,4.4-11.1,7.1-19,7.1-20.1,0-36.3-15.3-36.3-36.4s16.2-36.4,36.3-36.4c13.6,0,25.5,7.2,31.8,18.6l-17.1,4.5c-3.3-4-9.2-6.5-14.7-6.5-11.6,0-18.8,8.3-18.8,19.8,0,12.3,8.3,20,19.8,20s16.1-5.8,18.1-11v-.1h-18.4v-13.5h32.7v39.6h-14.4v-5.7Z"/>
    <path d="M1819.2,740.11l-13.9-22.8h-8.3v22.8h-16.8v-70h26.1c17.6,0,28.2,9.2,28.2,23.6,0,9.5-4.6,16.7-12.8,20.5l16.1,25.9h-18.6ZM1797,701.61h11.6c6,0,8.4-4.1,8.4-7.9s-2.4-7.9-8.4-7.9h-11.6v15.8Z"/>
    <path d="M1895.8,731.11h-32.2l-4.1,9h-18.7l33-70h11.8l33,70h-18.7l-4.1-9ZM1888.7,715.41l-8-17.7-1-2.8-1,2.8-8,17.7h18Z"/>
    <path d="M1971.7,670.11v15.7h-21.3v54.3h-16.8v-54.3h-21v-15.7h59.1Z"/>
    <path d="M2032,724.41v15.7h-51.5v-70h50.9v15.7h-34.1v11.5h26.7v15.1h-26.7v12h34.7Z"/>
    <path d="M2077.39,670.11c20,0,36.2,14.3,36.2,35.3s-16.2,34.7-36.2,34.7h-30.6v-70h30.6ZM2077.39,724.41c10,0,18.7-7,18.7-19s-8.7-19.6-18.7-19.6h-13.8v38.6h13.8Z"/>
    <path d="M2211.59,691.81c-3.2-4-9.2-6.5-14.7-6.5-11.6,0-18.8,8.3-18.8,19.8,0,12.1,7.9,19.6,18.8,19.6,6.7,0,13.1-3.4,16-8.2l17,4.4c-5.8,12.4-18.3,20.6-33,20.6-20.1,0-36.3-15.3-36.3-36.4s16.2-36.4,36.3-36.4c13.8,0,25.6,7.4,31.8,18.6l-17.1,4.5Z"/>
    <path d="M2271.29,668.71c20.1,0,36.4,15.3,36.4,36.4s-16.3,36.4-36.4,36.4-36.3-15.3-36.3-36.4,16.2-36.4,36.3-36.4ZM2271.29,724.91c11.4,0,18.9-8.1,18.9-19.8s-7.5-19.8-18.9-19.8-18.8,8-18.8,19.8,7.5,19.8,18.8,19.8Z"/>
    <path d="M2353.29,692.31c-1.7-6.2-6.7-9.1-11.7-9.1s-8.3,2.1-8.3,5.5c0,4.1,7,6.1,15.5,9.2,10.4,3.8,21.3,8.3,21.3,21.7s-11,21.9-27.3,21.9c-14.6,0-25-8.1-29.6-21.2l16.4-4.4c1.6,5.5,7.2,10.4,14.4,10.4,5.4,0,8.7-2.6,8.7-5.8,0-5-8.6-7.1-18.6-10.9-8.4-3.2-18.1-7.8-18.1-20.1,0-10.9,11-20.8,26.2-20.8,13.4,0,24,8.2,27.3,19.2l-16.2,4.4Z"/>
    <path d="M2450.4,670.11v70h-16.8v-37.2l.2-2.5-1.2,2.5-13.8,19.9h-6.8l-13.8-19.9-1.2-2.5.2,2.5v37.2h-16.8v-70h15.8l18,26.4,1.2,2.3,1.2-2.3,18-26.4h15.8Z"/>
    <path d="M2497.99,668.71c20.1,0,36.4,15.3,36.4,36.4s-16.3,36.4-36.4,36.4-36.3-15.3-36.3-36.4,16.2-36.4,36.3-36.4ZM2497.99,724.91c11.4,0,18.9-8.1,18.9-19.8s-7.5-19.8-18.9-19.8-18.8,8-18.8,19.8,7.5,19.8,18.8,19.8Z"/>
    <path d="M2579.99,692.31c-1.7-6.2-6.7-9.1-11.7-9.1s-8.3,2.1-8.3,5.5c0,4.1,7,6.1,15.5,9.2,10.4,3.8,21.3,8.3,21.3,21.7s-11,21.9-27.3,21.9c-14.6,0-25-8.1-29.6-21.2l16.4-4.4c1.6,5.5,7.2,10.4,14.4,10.4,5.4,0,8.7-2.6,8.7-5.8,0-5-8.6-7.1-18.6-10.9-8.4-3.2-18.1-7.8-18.1-20.1,0-10.9,11-20.8,26.2-20.8,13.4,0,24,8.2,27.3,19.2l-16.2,4.4Z"/>
  </g>
  <g>
    <path d="M1306,792.56c-.6,2.2-2.8,3.2-5.6,3.2h-36.2v62.2h12.4l13.6-21.4s15.6,14.6,24,23.8c-.6,2.2-2.8,3.2-5.6,3.2h-44.4v87c0,1.8-9.2,8.2-25.2,8.2h-5.8v-95.2h-27.4c-1,38.2-11.2,76.2-80,96.4l-1.2-1.4c41.4-25.8,49.6-57.6,50.6-95h-48l-1.6-5.6h49.6v-62.2h-39.6l-1.6-5.6h134.2l13.4-17.8s15.4,12,24.4,20.2ZM1206,857.96h27.2v-62.2h-27.2v62.2Z"/>
    <path d="M1425.6,814.96c-.6,2.2-2.8,3.2-5.6,3.2h-47.8c-.2,9.4-.6,18.6-1.2,28h11.6l13.6-13.4,23,19.6c-1.6,1.8-4,3.2-8.4,4-1.8,65.4-5,85.4-15.8,94.8-6.8,5.8-15.2,8.4-26.2,8.4,0-8.2-.4-14.4-2.8-17.8-2.6-3.8-6.6-6.6-13.6-8.4v-2.4c5.2.4,13.4.8,17,.8,2.8,0,4.6-.6,6.2-2,5.4-4.8,7.6-27,9-78h-14c-3.4,41.8-13.6,81.8-46.8,109l-1.6-1.6c22.6-40.8,23.6-93.2,21.8-141h-18l-1.6-5.6h64l13.4-18s15,12.2,23.8,20.4ZM1362,806.96c-1.2-12.4-7.4-25.8-13.8-34.8l1.6-1c61,8,36.4,54.4,12.2,35.8ZM1464.2,782.96c-3.2,12.4-6.8,23.8-11.2,34.4h24.2l13.8-19s15.8,12.8,25,21.4c-.4,2.2-2.6,3.2-5.6,3.2h-8.2c-3.6,30.4-11.6,58.8-27.8,82.6,11.2,12,25,21.4,41.4,28.8l-.6,2c-13.8,3.2-21.4,11.2-24.8,24.6-13.2-9.8-23.4-22.2-31-37-15,15-34.8,27.6-61,36.4l-1.2-1.8c24.6-15.6,41.6-34.8,53-56.4-5.6-16.8-9.2-35.6-11.8-56.2-6.8,10.6-14.4,19.8-23.4,27.8l-2.2-1.2c10-26.8,18-66,19.8-102.2l39.2,7.8c-.6,2.6-3,4.6-7.6,4.8ZM1441.8,840.56c3.8,16.4,9.2,31,16.6,43.6,7.2-19.4,10.8-40,12.2-61.2h-20c-2.6,6.2-5.6,12-8.8,17.6Z"/>
    <path d="M1695.6,804.56c-.6,2.2-2.8,3.2-5.6,3.2h-51.8v16.8h18.6l12.6-16.6s14.4,11.2,23,19c-.4,2.2-2.6,3.2-5.4,3.2h-48.8v17.4h18.6l12.6-16.6s14.4,11.2,23,19c-.4,2.2-2.6,3.2-5.4,3.2h-48.8v18.4h25l14-18.2s15.6,12.2,25,20.6c-.6,2.2-2.8,3.2-5.6,3.2h-113.4v5.8c0,1.8-8.6,8.2-23.2,8.2h-5.2v-66.2c-9,5.2-18.4,9.4-28.2,12.8l-1.6-1.8c16-14.6,33-39.4,42.4-66.4l35.4,17c-1.2,2.2-4,3.8-8.8,3-3.2,4.2-6.4,8.2-9.8,12l1.8.6h72.4l13.4-17.8s15,12,23.8,20.2ZM1711.8,899.95c-.6,2.2-2.8,3.2-5.6,3.2h-67.6c17.8,13.2,48,21.4,74.6,23.6l-.2,2.2c-10.6,3.2-18.4,12.6-21.2,26.6-28.2-10-46.4-26.6-58.6-51v49c0,2-13.2,6.6-24.6,6.6h-5.4v-37c-19.6,14.6-46.4,25.4-76.8,32.4l-1-2c25-12,45.2-31.4,57.2-50.4h-53.6l-1.6-5.6h75.8v-19.6l36.6,3c-.4,2.4-1.6,4.4-6.6,5.2v11.4h40.6l13.6-18.8s15.4,12.6,24.4,21.2ZM1608.6,824.56v-16.8h-25.4v16.8h25.4ZM1608.6,847.56v-17.4h-25.4v17.4h25.4ZM1583.2,871.56h25.4v-18.4h-25.4v18.4ZM1613.6,796.76c-.2-9.4-4.4-19.2-9-25l1.2-1c58.6-.2,31.8,44.2,7.8,26Z"/>
    <path d="M1742.2,800.76l33.2,11.2h46.6c-.8-13.6-1.2-27.4-1.2-41.4l35.8,3.4c-.2,2.6-2,5-7.2,5.8-.2,10.6-.2,21.4.4,32.2h22l6.8-8.6c-1.4-.4-2.8-.8-4.2-1.6-2.8-9.2-10.6-19.2-17.4-24.8l1.4-1.2c35.6-4.2,41.6,13.2,34.8,22.4,5.8,4.4,14.2,11,20.2,16.2-.6,2.2-2.8,3.2-5.8,3.2h-57.6c1.2,18.4,3.8,36.4,9.2,52.6,5.2-12.6,9-25.2,11.8-37.4l36.6,12.4c-.8,2.4-2.6,4-7.8,3.8-6.6,16.8-15.4,33.8-27.2,49.8,4.6,7,10,13.2,16.4,18.8,2.8,3,4.4,3,6.8-.4,3.6-5.2,10.2-16.6,14.6-25.6l1.8.6-5.4,35.8c7.8,14.2,9,22,4.8,25.6-11.6,10.2-31,0-40.2-9-7.4-7.2-13.6-15-19-23.4-16.2,15.2-36.8,28.2-62.8,37l-1.4-2.2c23-14,40.8-32.8,54-53.2-12-25.6-17.4-54.4-19.8-85.2h-51.2v31.2h18l13.4-12.8,23,19.2c-1.4,1.6-3.8,3-7.8,3.6-1.2,44.4-3.6,58.2-13.2,65.4-6,4.4-13.4,6.6-24,6.6,0-7.8-.4-14-2.8-17.6-2.4-3.6-5.8-6-12-7.8v-1c-5.8,21-17.8,41.8-42.4,57l-1.4-1.4c18.8-31.2,20.2-71.2,20.2-105.2v-54ZM1771.2,854.36v.4c0,14.4-.6,31.4-5,48.2,4,.4,11,.6,14.2.6,2.6,0,4-.4,5.2-1.4,3.2-3,4.6-16.6,5.4-47.8h-19.8Z"/>
    <path d="M2112,878.15c-.6,2.2-2.8,3.2-5.6,3.2h-72.8v44.4c0,19.2-5.2,32.6-38.4,35-.4-9.8-2-17.2-6-21.6-3.8-4.2-8.6-7.6-21.8-9.8v-2.4s26.6,1.6,32,1.6c3,0,4.2-1.6,4.2-3.8v-43.4h-74.8l-1.6-5.6h76.4v-32.8h-46.2l-1.6-5.6h87.4l14.2-18s10.2,7.6,19.2,15c.4-7.2.6-16.2.6-23.4h-118.4c2.4,15.8-2.2,27.2-10.2,32.2-7.6,5-20.8,1.4-24-9.2-2.8-10,3-17.4,11.4-21.2,6.2-3.2,15.2-11.4,15-20h2.2c2,4.4,3.4,8.6,4.4,12.6h60.2c-2.6-.8-5.4-2-8-4,.2-11.2-4.6-22.8-12.4-29.4l1-1c52.6-3,48,29,30,34.4h46.6l14.2-14.4,25,23.4c-1.6,1.8-3.6,2.4-7.8,2.6-6.6,6.4-17.6,14.6-26.8,19.8l3.6,3c-.6,2.2-2.8,3.2-5.8,3.2h-43.8v32.8h39l14-18.4s16,12.4,25.4,20.8Z"/>
    <path d="M2228.4,805.36h46.6l14.4-14.4,24.8,23.4c-1.6,1.8-3.6,2.4-7.8,2.6-8,6.8-21.6,15.8-32.2,20.8l-1.4-1.2c1.6-7.2,3-17.6,3.8-25.6h-117.8c2.2,13.4-.8,23.6-6.6,29.2-1.2,1.4-2.4,2.2-3.6,3-7.6,5-20.8,1.4-24-9.2-2.8-10,3-17.4,11.4-21.2,6.2-3.2,15.2-11.4,15-20h2.2c2,4.4,3.4,8.6,4.4,12.6h60.2c-2.6-.8-5.4-2-8-4,.2-11.2-4.6-22.8-12.4-29.4l1-1c52.6-3,48,29,30,34.4ZM2234.6,824.36v27.4h21.8l12.8-14.2,26,20c-1.2,1.6-3.8,3.4-7.8,4.4v88.6c-.4,1.8-14.4,7.2-24.2,7.2h-4.8v-15.2h-78.4v8.4c0,3-12,9.4-23.8,9.4h-4.2v-108.6l.2-11.6,29.6,11.6h23.8v-35.6l35.4,3c-.2,2.8-1.6,4.6-6.4,5.2ZM2180,857.36v34.6h25.6v-34.6h-25.6ZM2205.6,936.95v-39.4h-25.6v39.4h25.6ZM2234.6,857.36v34.6h23.8v-34.6h-23.8ZM2258.4,897.55h-23.8v39.4h23.8v-39.4Z"/>
  </g>
  <g>
    <path d="M1339.61,40.8c160.8,0,291.2,122.4,291.2,291.2s-130.4,291.2-291.2,291.2-290.4-122.4-290.4-291.2S1178.81,40.8,1339.61,40.8ZM1339.61,490.4c91.2,0,151.2-64.8,151.2-158.4s-60-158.4-151.2-158.4-150.4,64-150.4,158.4,60,158.4,150.4,158.4Z"/>
    <path d="M1934.8,52c137.6,0,220.8,72,220.8,192s-83.2,192-220.8,192h-79.2v176h-134.4V52h213.6ZM1932.4,310.4c52,0,83.2-24.8,83.2-66.4s-31.2-66.4-83.2-66.4h-76.8v132.8h76.8Z"/>
    <path d="M2226,612V52h134.4v560h-134.4Z"/>
    <path d="M2858.79,225.6c-25.6-32-73.6-52-117.6-52-92.8,0-150.4,66.4-150.4,158.4,0,96.8,63.2,156.8,150.4,156.8,53.6,0,104.8-27.2,128-65.6l136,35.2c-46.4,99.2-146.4,164.8-264,164.8-160.8,0-290.4-122.4-290.4-291.2s129.6-291.2,290.4-291.2c110.4,0,204.8,59.2,254.4,148.8l-136.8,36Z"/>
  </g>
</svg>