<?xml version="1.0" encoding="UTF-8"?>
<svg id="_图层_1" data-name="图层 1" xmlns="http://www.w3.org/2000/svg" viewBox="0 0 3047.31 1000.27">
  <path d="M950,50.27v900H50V50.27h900M1000,.27H0v1000h1000V.27h0Z"/>
  <path d="M833.21,59.76c36.87,0,64.79,9.22,82.97,27.4,17.38,17.38,26.58,43.71,27.35,78.27.87,39.1-9.41,87.55-29.74,140.1-21.6,55.84-53.47,114.7-94.73,174.95-43.24,63.13-94.77,124.76-153.18,183.17-85.33,85.33-178.54,156.7-269.54,206.39-43.01,23.48-84.49,41.55-123.28,53.7-37.33,11.69-71.21,17.61-100.69,17.61-36.87,0-64.79-9.22-82.97-27.4-17.38-17.38-26.58-43.71-27.35-78.27-.87-39.1,9.41-87.55,29.74-140.1,21.6-55.84,53.47-114.7,94.73-174.95,43.24-63.13,94.77-124.76,153.18-183.17,85.33-85.33,178.54-156.7,269.54-206.39,43.01-23.48,84.49-41.55,123.28-53.7,37.33-11.69,71.21-17.61,100.69-17.61M833.21,9.76c-139.32,0-345.55,109.02-528.88,292.34C56.5,549.94-55.56,839.71,54.04,949.31c28.53,28.53,69.3,42.05,118.33,42.05,139.32,0,345.55-109.02,528.88-292.34,247.84-247.84,359.9-537.6,250.29-647.21-28.53-28.53-69.3-42.05-118.33-42.05h0Z"/>
  <path d="M.65.1c1.93-1.91,60.93,54.31,113,104,36.75,35.07,140.34,134.33,264,236,51.07,41.99,81.31,64.44,123,64,41.32-.43,70.31-23.86,119-64,126.6-104.36,266.74-242.35,342-309,10.91-9.66,37.17-32.85,39-31,1.83,1.85-21.66,27.79-30,37-76.16,84.12-207.58,206.27-312,338-44.34,55.94-62.19,86.33-62,125,.2,40.44,20.05,70.23,67,128,99.68,122.64,216.06,241.61,307,338,11.29,11.96,31.11,32.86,30,34-1.69,1.74-51.01-43.67-72-63-52.96-48.76-89.51-84.38-115-109-120.54-116.46-159.4-147.36-184-166-86.73-65.72-112.86-67.63-129-66-45.36,4.58-94.99,43.2-123,65-20.11,15.65-33.85,28.96-37,32C251,779.8,4.75,1004.23.65,1000.1c-1.02-1.02,12.45-16.55,59-66,117.96-125.32,197.2-202.48,281-313,38.89-51.3,63.14-79.15,64-121,.84-40.56-18.71-72.06-61-126-77.06-98.3-140.84-157.85-226-246C62.65,71.17-1.42,2.16.65.1"/>
  <g>
    <path d="M1520.13,269.16c-25.6-32-73.6-52-117.6-52-92.8,0-150.4,66.4-150.4,158.4,0,96.8,63.2,156.8,150.4,156.8,53.6,0,104.8-27.2,128-65.6l136,35.2c-46.4,99.2-146.4,164.8-264,164.8-160.8,0-290.4-122.4-290.4-291.2s129.6-291.2,290.4-291.2c110.4,0,204.8,59.2,254.4,148.8l-136.8,36Z"/>
    <path d="M1930.53,481.96l-7.2,19.2-100,154.4h-160l187.2-285.6-179.2-274.4h160l92,143.2,7.2,19.2,7.2-19.2,92-143.2h160l-179.2,274.4,187.2,285.6h-160l-100-154.4-7.2-19.2Z"/>
    <path d="M2268.12,655.56V95.56h134.4v560h-134.4Z"/>
    <path d="M2900.91,269.16c-25.6-32-73.6-52-117.6-52-92.8,0-150.4,66.4-150.4,158.4,0,96.8,63.2,156.8,150.4,156.8,53.6,0,104.8-27.2,128-65.6l136,35.2c-46.4,99.2-146.4,164.8-264,164.8-160.8,0-290.4-122.4-290.4-291.2s129.6-291.2,290.4-291.2c110.4,0,204.8,59.2,254.4,148.8l-136.8,36Z"/>
  </g>
  <g>
    <path d="M1209.14,713.23c-3.27-4.09-9.4-6.64-15.02-6.64-11.85,0-19.21,8.48-19.21,20.23,0,12.36,8.07,20.03,19.21,20.03,6.85,0,13.38-3.47,16.35-8.38l17.37,4.5c-5.93,12.67-18.7,21.05-33.72,21.05-20.54,0-37.09-15.63-37.09-37.19s16.55-37.19,37.09-37.19c14.1,0,26.16,7.56,32.49,19l-17.47,4.6Z"/>
    <path d="M1261.56,740.4l-.92,2.45-12.77,19.72h-20.43l23.91-36.48-22.89-35.05h20.43l11.75,18.29.92,2.45.92-2.45,11.75-18.29h20.43l-22.89,35.05,23.91,36.48h-20.43l-12.77-19.72-.92-2.45Z"/>
    <path d="M1304.68,762.58v-71.52h17.17v71.52h-17.17Z"/>
    <path d="M1401.95,691.05v71.52h-16.14l-29.63-38.21-1.43-2.66.2,2.66v38.21h-17.17v-71.52h16.14l29.63,37.7,1.43,2.66-.2-2.66v-37.7h17.17Z"/>
    <path d="M1458.75,762.58v-71.52h17.17v71.52h-17.17Z"/>
    <path d="M1556.02,691.05v71.52h-16.14l-29.63-38.21-1.43-2.66.2,2.66v38.21h-17.17v-71.52h16.14l29.63,37.7,1.43,2.66-.2-2.66v-37.7h17.17Z"/>
    <path d="M1625.4,691.05v16.04h-21.76v55.48h-17.17v-55.48h-21.46v-16.04h60.38Z"/>
    <path d="M1687.01,746.53v16.04h-52.62v-71.52h52.01v16.04h-34.84v11.75h27.28v15.43h-27.28v12.26h35.45Z"/>
    <path d="M1751.17,756.75c-4.19,4.5-11.34,7.25-19.41,7.25-20.54,0-37.09-15.63-37.09-37.19s16.55-37.19,37.09-37.19c13.9,0,26.05,7.36,32.49,19l-17.47,4.6c-3.37-4.09-9.4-6.64-15.02-6.64-11.85,0-19.21,8.48-19.21,20.23,0,12.57,8.48,20.43,20.23,20.43s16.45-5.93,18.49-11.24v-.1h-18.8v-13.79h33.41v40.46h-14.71v-5.82Z"/>
    <path d="M1819.83,762.58l-14.2-23.29h-8.48v23.29h-17.17v-71.52h26.67c17.98,0,28.81,9.4,28.81,24.11,0,9.71-4.7,17.06-13.08,20.95l16.45,26.46h-19ZM1797.15,723.24h11.85c6.13,0,8.58-4.19,8.58-8.07s-2.45-8.07-8.58-8.07h-11.85v16.14Z"/>
    <path d="M1898.1,753.38h-32.9l-4.19,9.2h-19.11l33.72-71.52h12.06l33.72,71.52h-19.11l-4.19-9.2ZM1890.84,737.34l-8.17-18.08-1.02-2.86-1.02,2.86-8.17,18.08h18.39Z"/>
    <path d="M1975.65,691.05v16.04h-21.76v55.48h-17.17v-55.48h-21.46v-16.04h60.38Z"/>
    <path d="M2037.26,746.53v16.04h-52.62v-71.52h52.01v16.04h-34.84v11.75h27.28v15.43h-27.28v12.26h35.45Z"/>
    <path d="M2083.65,691.05c20.43,0,36.99,14.61,36.99,36.07s-16.55,35.45-36.99,35.45h-31.27v-71.52h31.27ZM2083.65,746.53c10.22,0,19.11-7.15,19.11-19.41s-8.89-20.03-19.11-20.03h-14.1v39.44h14.1Z"/>
    <path d="M2220.76,713.23c-3.27-4.09-9.4-6.64-15.02-6.64-11.85,0-19.21,8.48-19.21,20.23,0,12.36,8.07,20.03,19.21,20.03,6.85,0,13.38-3.47,16.35-8.38l17.37,4.5c-5.93,12.67-18.7,21.05-33.72,21.05-20.54,0-37.09-15.63-37.09-37.19s16.55-37.19,37.09-37.19c14.1,0,26.16,7.56,32.49,19l-17.47,4.6Z"/>
    <path d="M2281.76,689.62c20.54,0,37.19,15.63,37.19,37.19s-16.65,37.19-37.19,37.19-37.09-15.63-37.09-37.19,16.55-37.19,37.09-37.19ZM2281.76,747.05c11.65,0,19.31-8.28,19.31-20.23s-7.66-20.23-19.31-20.23-19.21,8.17-19.21,20.23,7.66,20.23,19.21,20.23Z"/>
    <path d="M2365.54,713.74c-1.74-6.33-6.85-9.3-11.95-9.3s-8.48,2.15-8.48,5.62c0,4.19,7.15,6.23,15.84,9.4,10.63,3.88,21.76,8.48,21.76,22.17s-11.24,22.38-27.89,22.38c-14.92,0-25.54-8.28-30.24-21.66l16.76-4.5c1.63,5.62,7.36,10.63,14.71,10.63,5.52,0,8.89-2.66,8.89-5.93,0-5.11-8.79-7.25-19-11.14-8.58-3.27-18.49-7.97-18.49-20.54,0-11.14,11.24-21.25,26.77-21.25,13.69,0,24.52,8.38,27.89,19.62l-16.55,4.5Z"/>
    <path d="M2464.75,691.05v71.52h-17.17v-38.01l.2-2.55-1.23,2.55-14.1,20.33h-6.95l-14.1-20.33-1.23-2.55.2,2.55v38.01h-17.17v-71.52h16.14l18.39,26.97,1.23,2.35,1.23-2.35,18.39-26.97h16.14Z"/>
    <path d="M2513.39,689.62c20.54,0,37.19,15.63,37.19,37.19s-16.65,37.19-37.19,37.19-37.09-15.63-37.09-37.19,16.55-37.19,37.09-37.19ZM2513.39,747.05c11.65,0,19.31-8.28,19.31-20.23s-7.66-20.23-19.31-20.23-19.21,8.17-19.21,20.23,7.66,20.23,19.21,20.23Z"/>
    <path d="M2597.17,713.74c-1.74-6.33-6.85-9.3-11.95-9.3s-8.48,2.15-8.48,5.62c0,4.19,7.15,6.23,15.84,9.4,10.63,3.88,21.76,8.48,21.76,22.17s-11.24,22.38-27.89,22.38c-14.92,0-25.54-8.28-30.24-21.66l16.76-4.5c1.63,5.62,7.36,10.63,14.71,10.63,5.52,0,8.89-2.66,8.89-5.93,0-5.11-8.79-7.25-19-11.14-8.58-3.27-18.49-7.97-18.49-20.54,0-11.14,11.24-21.25,26.77-21.25,13.69,0,24.52,8.38,27.89,19.62l-16.55,4.5Z"/>
  </g>
  <g>
    <path d="M1341.06,892.96c-.65,2.37-3.01,3.44-6.02,3.44h-78.31v47.76c0,20.65-5.59,35.07-41.31,37.65-.43-10.54-2.15-18.5-6.45-23.23-4.09-4.52-9.25-8.18-23.45-10.54v-2.58s28.61,1.72,34.42,1.72c3.23,0,4.52-1.72,4.52-4.09v-46.68h-80.46l-1.72-6.02h82.18v-35.28h-49.7l-1.72-6.02h94.01l15.27-19.36s10.97,8.17,20.65,16.13c.43-7.75.65-17.43.65-25.17h-127.36c2.58,17-2.37,29.26-10.97,34.64-8.18,5.38-22.37,1.51-25.82-9.9-3.01-10.76,3.23-18.72,12.26-22.8,6.67-3.44,16.35-12.26,16.14-21.51h2.37c2.15,4.73,3.66,9.25,4.73,13.55h64.75c-2.8-.86-5.81-2.15-8.6-4.3.21-12.05-4.95-24.53-13.34-31.62l1.08-1.08c56.58-3.23,51.63,31.19,32.27,37h50.13l15.27-15.49,26.89,25.17c-1.72,1.94-3.87,2.58-8.39,2.8-7.1,6.88-18.93,15.71-28.83,21.3l3.87,3.23c-.65,2.37-3.01,3.44-6.24,3.44h-47.11v35.28h41.95l15.06-19.79s17.21,13.34,27.32,22.37Z"/>
    <path d="M1466.27,814.65h50.13l15.49-15.49,26.68,25.17c-1.72,1.94-3.87,2.58-8.39,2.8-8.6,7.31-23.23,17-34.64,22.37l-1.51-1.29c1.72-7.74,3.23-18.93,4.09-27.54h-126.71c2.37,14.41-.86,25.39-7.1,31.41-1.29,1.51-2.58,2.37-3.87,3.23-8.18,5.38-22.37,1.51-25.82-9.9-3.01-10.76,3.23-18.72,12.26-22.8,6.67-3.44,16.35-12.26,16.14-21.51h2.37c2.15,4.73,3.66,9.25,4.73,13.55h64.75c-2.8-.86-5.81-2.15-8.6-4.3.21-12.05-4.95-24.53-13.34-31.62l1.08-1.08c56.58-3.23,51.63,31.19,32.27,37ZM1472.94,835.09v29.47h23.45l13.77-15.27,27.97,21.51c-1.29,1.72-4.09,3.66-8.39,4.73v95.3c-.43,1.94-15.49,7.74-26.03,7.74h-5.16v-16.35h-84.33v9.04c0,3.23-12.91,10.11-25.6,10.11h-4.52v-116.82l.22-12.48,31.84,12.48h25.6v-38.29l38.08,3.23c-.21,3.01-1.72,4.95-6.88,5.59ZM1414.21,870.59v37.22h27.54v-37.22h-27.54ZM1441.74,956.21v-42.38h-27.54v42.38h27.54ZM1472.94,870.59v37.22h25.6v-37.22h-25.6ZM1498.54,913.83h-25.6v42.38h25.6v-42.38Z"/>
    <path d="M1753.68,813.79c-.65,2.37-3.01,3.44-6.02,3.44h-55.72v18.07h20.01l13.55-17.86s15.49,12.05,24.74,20.44c-.43,2.37-2.8,3.44-5.81,3.44h-52.49v18.72h20.01l13.55-17.86s15.49,12.05,24.74,20.44c-.43,2.37-2.8,3.44-5.81,3.44h-52.49v19.79h26.89l15.06-19.58s16.78,13.12,26.89,22.16c-.65,2.37-3.01,3.44-6.02,3.44h-121.98v6.24c0,1.94-9.25,8.82-24.96,8.82h-5.59v-71.21c-9.68,5.59-19.79,10.11-30.33,13.77l-1.72-1.94c17.21-15.71,35.5-42.38,45.61-71.42l38.08,18.29c-1.29,2.37-4.3,4.09-9.47,3.23-3.44,4.52-6.88,8.82-10.54,12.91l1.94.65h77.88l14.41-19.15s16.13,12.91,25.6,21.73ZM1771.11,916.41c-.65,2.37-3.01,3.44-6.02,3.44h-72.72c19.15,14.2,51.63,23.02,80.25,25.39l-.22,2.37c-11.4,3.44-19.79,13.55-22.8,28.61-30.33-10.76-49.91-28.61-63.03-54.86v52.71c0,2.15-14.2,7.1-26.46,7.1h-5.81v-39.8c-21.08,15.71-49.91,27.32-82.61,34.85l-1.08-2.15c26.89-12.91,48.62-33.78,61.53-54.21h-57.66l-1.72-6.02h81.54v-21.08l39.37,3.23c-.43,2.58-1.72,4.73-7.1,5.59v12.26h43.67l14.63-20.22s16.57,13.55,26.25,22.8ZM1660.1,835.3v-18.07h-27.32v18.07h27.32ZM1660.1,860.04v-18.72h-27.32v18.72h27.32ZM1632.78,885.86h27.32v-19.79h-27.32v19.79ZM1665.48,805.4c-.22-10.11-4.73-20.65-9.68-26.89l1.29-1.08c63.03-.22,34.21,47.54,8.39,27.97Z"/>
    <path d="M1803.81,809.7l35.71,12.05h50.13c-.86-14.63-1.29-29.47-1.29-44.53l38.51,3.66c-.21,2.8-2.15,5.38-7.74,6.24-.21,11.4-.21,23.02.43,34.64h23.67l7.31-9.25c-1.51-.43-3.01-.86-4.52-1.72-3.01-9.9-11.4-20.65-18.72-26.68l1.51-1.29c38.29-4.52,44.75,14.2,37.43,24.09,6.24,4.73,15.27,11.83,21.73,17.43-.65,2.37-3.01,3.44-6.24,3.44h-61.96c1.29,19.79,4.09,39.15,9.9,56.58,5.59-13.55,9.68-27.11,12.69-40.23l39.37,13.34c-.86,2.58-2.8,4.3-8.39,4.09-7.1,18.07-16.56,36.36-29.26,53.57,4.95,7.53,10.76,14.2,17.64,20.22,3.01,3.23,4.73,3.23,7.31-.43,3.87-5.59,10.97-17.86,15.71-27.54l1.94.65-5.81,38.51c8.39,15.27,9.68,23.67,5.16,27.54-12.48,10.97-33.35,0-43.24-9.68-7.96-7.75-14.63-16.14-20.44-25.17-17.43,16.35-39.58,30.33-67.55,39.8l-1.51-2.37c24.74-15.06,43.89-35.28,58.09-57.23-12.91-27.54-18.72-58.52-21.3-91.65h-55.07v33.56h19.36l14.41-13.77,24.74,20.65c-1.51,1.72-4.09,3.23-8.39,3.87-1.29,47.76-3.87,62.6-14.2,70.35-6.45,4.73-14.41,7.1-25.82,7.1,0-8.39-.43-15.06-3.01-18.93-2.58-3.87-6.24-6.45-12.91-8.39v-1.08c-6.24,22.59-19.15,44.96-45.61,61.31l-1.51-1.51c20.22-33.56,21.73-76.59,21.73-113.16v-58.09ZM1835,867.36v.43c0,15.49-.65,33.78-5.38,51.85,4.3.43,11.83.65,15.27.65,2.8,0,4.3-.43,5.59-1.51,3.44-3.23,4.95-17.86,5.81-51.42h-21.3Z"/>
    <path d="M2071.43,933.62c-16.13,15.49-41.52,31.62-69.92,40.45l-1.51-2.15c19.36-16.57,37.22-42.81,45.18-61.31l34.64,20.22c-1.29,2.15-3.23,3.44-8.39,2.8ZM2168.88,914.26c-3.23-8.18-8.39-17-14.63-25.17-10.54,2.58-23.02,5.16-37.43,8.17v53.35c0,18.93-4.73,29.9-37.22,32.05-.43-8.82-1.08-15.27-3.87-19.15-2.58-3.66-6.02-7.1-16.35-8.82v-2.37s17.21,1.08,21.51,1.08c2.8,0,3.66-1.51,3.66-3.44v-46.47c-15.27,2.8-32.05,5.81-50.13,8.82-1.51,2.15-3.44,3.66-5.38,4.52l-14.41-31.84s7.74-.86,11.83-2.15c22.59-5.38,52.28-19.58,76.8-34.42-16.57,4.52-37.43,9.68-60.88,14.84-1.29,1.29-2.58,2.37-4.09,3.01l-14.2-31.62s5.59-.86,8.39-1.72c12.69-2.8,29.04-12.26,40.88-21.3-22.8.86-45.82,1.29-66.91,1.08l-.43-3.23c51.63-7.1,119.18-21.94,153.82-33.99l28.83,29.26c-2.8,2.15-8.39,2.37-16.35-.86-18.72,2.58-42.6,4.52-68.2,6.24l15.92,8.82c-1.08,2.15-3.87,3.44-8.61,2.37-14.63,6.24-40.01,13.12-61.74,16.78,17.86.43,43.24.22,69.7,0,10.11-6.88,18.5-13.55,23.88-19.15l31.41,23.88c-1.51,1.94-5.16,3.44-10.54,1.72-23.45,13.55-73.79,31.62-116.39,42.17,25.82-.43,63.03-1.29,102.4-2.8-6.45-7.75-13.55-14.84-20.44-20.22l1.72-1.51c84.33,7.96,67.98,68.63,37.43,52.06ZM2163.72,968.69c-6.67-19.58-23.23-40.66-39.37-54l1.72-1.51c88.42,9.9,69.7,74.01,37.65,55.5Z"/>
    <path d="M2275.37,796.15c-10.76,15.92-29.47,35.93-45.39,47.97l29.26-.21c5.16-9.68,9.25-18.93,11.62-26.25l32.49,19.15c-1.08,1.94-3.87,3.44-7.96,2.8-12.69,16.78-36.79,40.23-58.09,54.86,15.27-.86,37-2.37,58.52-4.3l.21,2.37c-11.83,6.67-34.85,18.5-62.82,29.9-1.08,1.29-2.37,2.15-3.66,2.8l-12.91-31.19s6.02-1.29,8.39-3.01c7.31-5.81,16.57-17.43,24.74-30.55l-18.72,8.39c-1.51,2.37-3.44,3.87-5.38,4.73l-12.91-30.98s5.38-1.51,7.53-3.01c9.68-9.9,23.24-43.03,26.68-61.1l35.71,13.98c-.86,2.15-3.01,3.87-7.32,3.66ZM2297.96,922.43l.21,1.94c-13.12,10.54-32.92,25.17-63.03,42.81-1.08,2.8-3.44,5.16-6.24,6.02l-12.48-35.5c15.06-1.72,49.91-7.75,81.54-15.27ZM2421.66,817.23c-.65,2.37-3.01,3.44-6.24,3.44h-75.3l26.68,9.68c-.86,2.15-3.23,3.87-7.53,3.66-11.62,9.04-30.55,19.15-46.9,25.6,17.64,0,42.17-.43,68.41-1.08-3.87-7.75-8.39-14.84-13.12-20.87l1.94-1.29c70.35,15.27,47.33,68.63,20.44,48.83-1.08-6.45-3.23-13.12-6.02-19.58l-3.01,1.08v75.94c0,2.8.43,3.87,3.44,3.87h10.76c1.72-.21,2.8-.65,4.09-2.8,2.37-3.66,6.24-15.06,10.11-27.32h2.15l.86,29.04c6.45,3.23,7.74,6.88,7.74,12.26,0,10.97-8.82,16.78-33.99,16.78h-12.05c-20.22,0-23.23-5.81-23.23-24.1v-75.3l-7.1,1.94v11.83c-.21,30.98-8.17,73.14-82.61,92.29l-.86-1.72c44.1-24.96,51.42-61.1,51.63-90.36v-4.09l-3.66.86c-1.72,2.58-3.66,4.3-5.81,5.16l-12.91-33.13s5.81-.86,8.17-1.94c11.19-5.16,26.03-23.67,32.49-35.28h-42.17l-1.72-6.02h62.6c-3.01-.43-6.24-1.51-9.47-3.66-2.15-12.05-9.25-24.31-15.71-32.49l1.51-1.08c54.43.21,47.98,34.42,28.61,37.22h27.54l14.41-19.36s16.13,13.12,25.82,21.94Z"/>
  </g>
</svg>